<svg id="Layer_1" data-name="Layer 1" xmlns="http://www.w3.org/2000/svg" xmlns:xlink="http://www.w3.org/1999/xlink" viewBox="0 0 387.92 71.71"><defs><style>.cls-1{fill:#090909;}.cls-2{fill:#3cb5e3;}.cls-3{fill:url(#linear-gradient);}</style><linearGradient id="linear-gradient" x1="1.43" y1="791.27" x2="1.68" y2="791.53" gradientTransform="matrix(257.9, 0, 0, -238.7, -256.95, 189286.16)" gradientUnits="userSpaceOnUse"><stop offset="0" stop-color="#0672ba"/><stop offset="1" stop-color="#0672ba" stop-opacity="0"/></linearGradient></defs><title>MAVICE-LOGO</title><g id="Group_198" data-name="Group 198"><g id="Group_196" data-name="Group 196"><path id="Path_198" data-name="Path 198" class="cls-1" d="M272,417.87,270.83,395l-8.58,22.89h-6.09l-8.57-22.77-1.18,22.77H234.7l3-43.76h13.13l8.34,24.36,8.4-24.36H280.7l3,43.76Z" transform="translate(-115.11 -360.14)"/><path id="Path_199" data-name="Path 199" class="cls-1" d="M325.34,411.54H311l-2,6.33H296.55l16.2-43.76h10.82l16.2,43.76H327.3Zm-3-9.64-4.14-13.19-4.14,13.19Z" transform="translate(-115.11 -360.14)"/><path id="Path_200" data-name="Path 200" class="cls-1" d="M339.77,374.11h12.48l9.16,29,9.11-29H383l-16.21,43.76H356Z" transform="translate(-115.11 -360.14)"/><path id="Path_201" data-name="Path 201" class="cls-1" d="M395.83,374.11h11.7v43.76h-11.7Z" transform="translate(-115.11 -360.14)"/><path id="Path_202" data-name="Path 202" class="cls-1" d="M420.36,395.81c0-13.42,8.81-22.29,22-22.29,6.44,0,12.18,2.07,16.32,7L451.35,388a10,10,0,0,0-8.93-4.84c-6,0-10,5.14-10,12.77s4.15,12.89,10.35,12.89c4.67,0,7.34-2.37,9.52-6.45l7.81,7c-4.14,6.15-10.11,9-17.62,9C429.29,418.46,420.36,409.35,420.36,395.81Z" transform="translate(-115.11 -360.14)"/><path id="Path_203" data-name="Path 203" class="cls-1" d="M503,408.23v9.64H472.93V374.11H503v9.64H484.64V391l15,0v9.64l-15,0v7.63Z" transform="translate(-115.11 -360.14)"/></g><g id="Group_197" data-name="Group 197"><path id="Path_204" data-name="Path 204" class="cls-2" d="M183.13,371.8,155,400l-20.32,20.32a9.56,9.56,0,0,1-15.3-2.45,39.85,39.85,0,0,1,63.79-46Z" transform="translate(-115.11 -360.14)"/><path id="Path_205" data-name="Path 205" class="cls-3" d="M183.13,371.8,155,400l-20.32,20.32a9.56,9.56,0,0,1-15.3-2.45,39.85,39.85,0,0,1,63.79-46Z" transform="translate(-115.11 -360.14)"/><path id="Path_206" data-name="Path 206" class="cls-2" d="M134.75,420.18,162.92,392l20.32-20.32a9.56,9.56,0,0,1,15.3,2.46,39.84,39.84,0,0,1-63.79,46Z" transform="translate(-115.11 -360.14)"/></g></g></svg>